<svg xmlns="http://www.w3.org/2000/svg" viewBox="0 0 600 300">
  <defs>
    <linearGradient id="bg4" x1="0" y1="0" x2="1" y2="1">
      <stop offset="0%" stop-color="#2f1b12"/>
      <stop offset="50%" stop-color="#101f3a"/>
      <stop offset="100%" stop-color="#0a3028"/>
    </linearGradient>
  </defs>
  <rect width="600" height="300" fill="url(#bg4)"/>
  <g stroke="#f0b90b" stroke-width="2" opacity="0.4">
    <line x1="70" y1="35" x2="70" y2="275"/>
    <line x1="170" y1="35" x2="170" y2="275"/>
    <line x1="270" y1="35" x2="270" y2="275"/>
    <line x1="370" y1="35" x2="370" y2="275"/>
    <line x1="470" y1="35" x2="470" y2="275"/>
    <line x1="560" y1="35" x2="560" y2="275"/>
  </g>
  <polyline fill="none" stroke="#0ecb81" stroke-width="5" points="30,230 110,210 180,155 260,165 340,115 420,135 500,85 570,95"/>
  <polyline fill="none" stroke="#f6465d" stroke-width="4" points="30,245 110,225 180,235 260,205 340,215 420,195 500,205 570,190"/>
</svg>
